<svg width="24" height="24" viewBox="0 0 24 24" fill="none" xmlns="http://www.w3.org/2000/svg">
<g clip-path="url(#clip0_3224_6771)">
<path d="M16.2539 22.417C13.6172 22.417 10.585 20.9141 7.67578 18.0225C4.75781 15.1221 3.25488 12.0635 3.25488 9.47949C3.25488 7.87988 3.70312 6.86035 4.74023 5.90234C4.81055 5.84082 4.88086 5.7793 4.95117 5.71777C5.53125 5.20801 6.12891 4.95312 6.69141 4.96191C7.35059 4.9707 7.97461 5.33105 8.49316 6.08691L10.3477 8.74121C10.9277 9.55859 10.9717 10.5166 10.2334 11.2549L9.58301 11.9053C9.35449 12.1338 9.33691 12.3447 9.5127 12.5996C9.85547 13.1357 10.4971 13.8564 11.1211 14.4805C11.7451 15.0957 12.6416 15.8867 13.1162 16.2119C13.3799 16.3877 13.5908 16.3701 13.8105 16.1416L14.4697 15.4912C15.208 14.7529 16.1572 14.7969 16.9834 15.3682L19.6025 17.1875C20.3848 17.7324 20.7363 18.3301 20.7363 18.9893C20.7363 19.543 20.4814 20.1494 19.9629 20.7295C19.9014 20.8086 19.8398 20.8789 19.7783 20.9492C18.8379 21.9775 17.792 22.417 16.2539 22.417ZM16.2539 20.958C17.2031 20.9404 18.0293 20.6064 18.6094 19.9385C18.6621 19.877 18.7061 19.8154 18.7588 19.7539C18.9785 19.5078 19.084 19.2354 19.084 18.998C19.084 18.7344 18.9873 18.5146 18.7236 18.3389L16.2803 16.7217C15.9814 16.5195 15.6387 16.502 15.3486 16.8096L14.6455 17.5215C13.9951 18.1807 13.2393 18.1279 12.6416 17.6973C12 17.2314 10.9102 16.2559 10.1279 15.4824C9.38965 14.7529 8.50195 13.751 8.02734 13.083C7.59668 12.4854 7.54395 11.7207 8.20312 11.0791L8.91504 10.376C9.21387 10.0771 9.20508 9.74316 9.00293 9.44434L7.35059 6.96582C7.1748 6.70215 6.94629 6.59668 6.69141 6.59668C6.44531 6.59668 6.18164 6.71094 5.93555 6.92188C5.86523 6.97461 5.8125 7.01855 5.75098 7.07129C5.08301 7.66016 4.74902 8.47754 4.73145 9.42676C4.69629 11.668 6.34863 14.5684 8.7832 16.9766C11.209 19.3848 14.0127 20.9932 16.2539 20.958Z" fill="inherit"/>
</g>
<defs>
<clipPath >
<rect width="24" height="24" fill="white"/>
</clipPath>
</defs>
</svg>
