<svg xmlns="http://www.w3.org/2000/svg" width="24" height="24" viewBox="0 0 24 24" fill="none">
    <path fill-rule="evenodd" clip-rule="evenodd" d="M12.75 11.5V3.80078C12.75 3.25078 12.5222 3.0028 12.2472 3.0028C11.9722 3.0028 11.75 3.25078 11.75 3.80078V11.5L3.80281 11.5C3.25281 11.5 2.99993 11.725 2.99993 12C2.99993 12.275 3.25281 12.5 3.80281 12.5L11.75 12.5V20.2968C11.75 20.8468 11.975 21 12.25 21C12.525 21 12.75 20.8468 12.75 20.2968V12.5L20.3008 12.5C20.8508 12.5 21 12.275 21 12C21 11.725 20.8508 11.5 20.3008 11.5L12.75 11.5Z" fill="inherit"/>
</svg>