<svg width="16" height="16" viewBox="0 0 16 16" fill="none" xmlns="http://www.w3.org/2000/svg">
<g >
<path d="M12.4714 4.47141C12.7318 4.21107 12.7318 3.78896 12.4714 3.52861C12.2111 3.26826 11.789 3.26826 11.5286 3.52861L8.00004 7.0572L4.47145 3.52861C4.2111 3.26826 3.78899 3.26826 3.52864 3.52861C3.26829 3.78896 3.26829 4.21107 3.52864 4.47141L7.05723 8.00001L3.52864 11.5286C3.26829 11.789 3.26829 12.2111 3.52864 12.4714C3.78899 12.7318 4.2111 12.7318 4.47145 12.4714L8.00004 8.94282L11.5286 12.4714C11.789 12.7318 12.2111 12.7318 12.4714 12.4714C12.7318 12.2111 12.7318 11.789 12.4714 11.5286L8.94285 8.00001L12.4714 4.47141Z" fill="white"/>
</g>
</svg>
