<svg width="24" height="25" viewBox="0 0 24 25" fill="none" xmlns="http://www.w3.org/2000/svg">
<g>
<path fill-rule="evenodd" clip-rule="evenodd" d="M19.792 5.91471C20.6521 6.14577 21.3325 6.82614 21.5635 7.68621C21.9872 9.25232 22 12.5001 22 12.5001C22 12.5001 22 15.7607 21.5764 17.3139C21.3453 18.174 20.665 18.8544 19.8049 19.0854C18.2516 19.5091 12 19.5091 12 19.5091C12 19.5091 5.74839 19.5091 4.19512 19.0854C3.33504 18.8544 2.65469 18.174 2.42362 17.3139C2 15.7478 2 12.5001 2 12.5001C2 12.5001 2 9.25232 2.41078 7.69905C2.64185 6.83897 3.32221 6.15861 4.18229 5.92755C5.73556 5.50392 11.9872 5.49109 11.9872 5.49109C11.9872 5.49109 18.2388 5.49109 19.792 5.91471ZM15.1836 12.5001L9.99743 15.5039V9.49623L15.1836 12.5001Z" fill="inherit"/>
</g>
</svg>
